<svg width="35" height="41" viewBox="0 0 35 41" fill="none" xmlns="http://www.w3.org/2000/svg">
<g id="Sparkle">
<g id="Vector" filter="url(#filter0_dd_3679_4053)">
<path d="M22.4352 19.0828L18.4055 17.5938L16.9211 13.5609C16.8332 13.3221 16.6742 13.116 16.4655 12.9705C16.2568 12.8249 16.0084 12.7468 15.754 12.7468C15.4995 12.7468 15.2511 12.8249 15.0424 12.9705C14.8337 13.116 14.6747 13.3221 14.5868 13.5609L13.093 17.5938L9.06021 19.0781C8.8214 19.166 8.61531 19.3251 8.46973 19.5338C8.32415 19.7425 8.24609 19.9908 8.24609 20.2453C8.24609 20.4998 8.32415 20.7481 8.46973 20.9568C8.61531 21.1656 8.8214 21.3246 9.06021 21.4125L13.093 22.9062L14.5774 26.9391C14.6653 27.1779 14.8243 27.384 15.0331 27.5295C15.2418 27.6751 15.4901 27.7532 15.7446 27.7532C15.9991 27.7532 16.2474 27.6751 16.4561 27.5295C16.6648 27.384 16.8239 27.1779 16.9118 26.9391L18.4055 22.9062L22.4383 21.4219C22.6771 21.334 22.8832 21.1749 23.0288 20.9662C23.1744 20.7575 23.2524 20.5092 23.2524 20.2547C23.2524 20.0002 23.1744 19.7519 23.0288 19.5432C22.8832 19.3344 22.6771 19.1754 22.4383 19.0875L22.4352 19.0828ZM17.7024 21.8297C17.6176 21.861 17.5405 21.9103 17.4766 21.9742C17.4126 22.0381 17.3633 22.1152 17.3321 22.2L15.7493 26.4883L14.1696 22.2031C14.1384 22.1174 14.0888 22.0395 14.0242 21.975C13.9597 21.9105 13.8819 21.8609 13.7961 21.8297L9.51099 20.25L13.7961 18.6703C13.8819 18.6391 13.9597 18.5895 14.0242 18.525C14.0888 18.4605 14.1384 18.3826 14.1696 18.2969L15.7493 14.0117L17.329 18.2969C17.3602 18.3817 17.4095 18.4588 17.4735 18.5227C17.5374 18.5866 17.6144 18.6359 17.6993 18.6672L21.9876 20.25L17.7024 21.8297ZM18.2493 12.125C18.2493 11.9592 18.3151 11.8003 18.4323 11.6831C18.5495 11.5658 18.7085 11.5 18.8743 11.5H20.1243V10.25C20.1243 10.0842 20.1901 9.92527 20.3073 9.80806C20.4245 9.69085 20.5835 9.625 20.7493 9.625C20.915 9.625 21.074 9.69085 21.1912 9.80806C21.3084 9.92527 21.3743 10.0842 21.3743 10.25V11.5H22.6243C22.79 11.5 22.949 11.5658 23.0662 11.6831C23.1834 11.8003 23.2493 11.9592 23.2493 12.125C23.2493 12.2908 23.1834 12.4497 23.0662 12.5669C22.949 12.6842 22.79 12.75 22.6243 12.75H21.3743V14C21.3743 14.1658 21.3084 14.3247 21.1912 14.4419C21.074 14.5592 20.915 14.625 20.7493 14.625C20.5835 14.625 20.4245 14.5592 20.3073 14.4419C20.1901 14.3247 20.1243 14.1658 20.1243 14V12.75H18.8743C18.7085 12.75 18.5495 12.6842 18.4323 12.5669C18.3151 12.4497 18.2493 12.2908 18.2493 12.125ZM26.3743 15.875C26.3743 16.0408 26.3084 16.1997 26.1912 16.3169C26.074 16.4342 25.915 16.5 25.7493 16.5H25.1243V17.125C25.1243 17.2908 25.0584 17.4497 24.9412 17.5669C24.824 17.6842 24.665 17.75 24.4993 17.75C24.3335 17.75 24.1745 17.6842 24.0573 17.5669C23.9401 17.4497 23.8743 17.2908 23.8743 17.125V16.5H23.2493C23.0835 16.5 22.9245 16.4342 22.8073 16.3169C22.6901 16.1997 22.6243 16.0408 22.6243 15.875C22.6243 15.7092 22.6901 15.5503 22.8073 15.4331C22.9245 15.3158 23.0835 15.25 23.2493 15.25H23.8743V14.625C23.8743 14.4592 23.9401 14.3003 24.0573 14.1831C24.1745 14.0658 24.3335 14 24.4993 14C24.665 14 24.824 14.0658 24.9412 14.1831C25.0584 14.3003 25.1243 14.4592 25.1243 14.625V15.25H25.7493C25.915 15.25 26.074 15.3158 26.1912 15.4331C26.3084 15.5503 26.3743 15.7092 26.3743 15.875Z" fill="url(#paint0_linear_3679_4053)"/>
</g>
</g>
<defs>
<filter id="filter0_dd_3679_4053" x="0.246094" y="0.625" width="34.1279" height="40.1282" filterUnits="userSpaceOnUse" color-interpolation-filters="sRGB">
<feFlood flood-opacity="0" result="BackgroundImageFix"/>
<feColorMatrix in="SourceAlpha" type="matrix" values="0 0 0 0 0 0 0 0 0 0 0 0 0 0 0 0 0 0 127 0" result="hardAlpha"/>
<feOffset dy="5"/>
<feGaussianBlur stdDeviation="4"/>
<feComposite in2="hardAlpha" operator="out"/>
<feColorMatrix type="matrix" values="0 0 0 0 1 0 0 0 0 1 0 0 0 0 1 0 0 0 0.2 0"/>
<feBlend mode="normal" in2="BackgroundImageFix" result="effect1_dropShadow_3679_4053"/>
<feColorMatrix in="SourceAlpha" type="matrix" values="0 0 0 0 0 0 0 0 0 0 0 0 0 0 0 0 0 0 127 0" result="hardAlpha"/>
<feOffset dy="-5"/>
<feGaussianBlur stdDeviation="2"/>
<feComposite in2="hardAlpha" operator="out"/>
<feColorMatrix type="matrix" values="0 0 0 0 1 0 0 0 0 1 0 0 0 0 1 0 0 0 0.2 0"/>
<feBlend mode="normal" in2="effect1_dropShadow_3679_4053" result="effect2_dropShadow_3679_4053"/>
<feBlend mode="normal" in="SourceGraphic" in2="effect2_dropShadow_3679_4053" result="shape"/>
</filter>
<linearGradient id="paint0_linear_3679_4053" x1="26.3743" y1="4.98419" x2="23.8756" y2="25.5188" gradientUnits="userSpaceOnUse">
<stop stop-color="#1BAFFE"/>
<stop offset="1" stop-color="#9103B4"/>
</linearGradient>
</defs>
</svg>
